<svg width="71" height="55" viewBox="0 0 71 55" fill="none" xmlns="http://www.w3.org/2000/svg">
<mask id="path-1-inside-1_55_10" fill="white">
<path d="M33.6521 52.2674C33.3844 52.2977 33.1679 52.2505 33.0011 52.1914C32.7893 51.9127 32.5547 51.1444 32.4461 50.5405C31.9397 48.6752 32.5974 46.762 33.3436 45.0461C33.6965 44.1702 34.0235 43.2838 34.3505 42.3975C34.5542 42.1584 34.7534 41.9164 34.9446 41.6704C35.2522 41.8656 35.6128 41.9765 35.9777 41.9776C35.9832 41.9773 35.9887 41.977 35.9941 41.9766C36.0054 41.9815 36.0179 41.9884 36.027 41.9944C36.3694 44.0843 36.7692 45.452 37.4324 46.4783C37.4063 46.5358 37.3802 46.5932 37.3574 46.6516C37.1839 47.1387 37.2172 47.6758 37.1755 48.1856C37.193 48.441 37.2806 48.6954 37.2523 48.9547C37.1867 49.4133 36.956 49.8403 36.6581 50.1902C35.9232 51.1821 34.8374 52.0067 33.6521 52.2674ZM24.9252 48.1583C22.0822 49.0795 18.7059 49.806 16.1562 50.1738C15.3063 50.2719 14.4498 50.3145 13.5962 50.3329C14.3248 50.1128 15.0525 49.896 15.7872 49.6864C17.3751 49.213 18.9971 48.833 20.5283 48.1833C24.4393 46.4506 28.1551 44.3166 31.9858 42.4156C32.6503 42.0941 33.2945 41.7278 33.955 41.3945C34.1332 41.3509 34.3105 41.3106 34.485 41.2607C34.5894 41.3925 34.7133 41.5045 34.8484 41.6016C34.7478 41.6964 34.6448 41.787 34.5451 41.8784C34.576 41.79 34.6101 41.7025 34.6422 41.6162C34.5569 41.7473 34.4753 41.8848 34.3913 42.0181C31.5806 44.5361 28.2695 46.4421 24.9252 48.1583ZM35.9032 40.3516C35.947 40.2416 35.992 40.1337 36.0374 40.0312C36.0664 40.0766 36.0987 40.1229 36.129 40.1704C36.0537 40.2308 35.9797 40.2933 35.9032 40.3516ZM36.337 39.2736C36.3993 39.088 36.4637 38.9011 36.5272 38.7176C40.0247 34.1311 43.2098 29.307 46.8111 24.8075C48.7906 22.6987 50.7545 20.5679 52.6183 18.3565C52.6239 18.4493 52.6282 18.54 52.6335 18.6274C52.7313 21.2426 52.291 23.8748 51.4443 26.3462C50.1612 29.7784 47.3246 33.7828 44.2408 36.4981C41.9511 38.6419 39.1595 40.2 35.8562 40.8278C35.8522 40.816 35.849 40.8008 35.8462 40.7911C35.8469 40.8021 35.8488 40.8151 35.8507 40.8281C35.8431 40.8297 35.8376 40.83 35.8301 40.8315C35.7901 40.8405 35.7522 40.8483 35.7164 40.8548C35.7446 40.7764 35.7715 40.6959 35.8006 40.6142C35.9547 40.5337 36.1062 40.449 36.2578 40.3643C36.2841 40.3999 36.3095 40.439 36.3336 40.4759C36.3137 40.4365 36.2938 40.3972 36.2739 40.3578C37.9344 39.433 39.467 38.2771 40.8357 36.9644C42.5087 35.2247 43.8901 33.2296 45.2321 31.2347C45.2563 31.1982 45.2804 31.1617 45.3045 31.1252C45.0885 31.3431 44.8705 31.5621 44.6545 31.78C41.8725 34.6119 39.2686 37.6545 36.1656 40.1408C36.1343 40.0769 36.101 40.0143 36.0697 39.9504C36.1946 39.658 36.3012 39.4073 36.337 39.2736ZM34.2129 40.1046C33.5236 37.9862 32.8538 35.4809 32.7779 33.6128C32.7202 32.652 32.5539 31.6889 32.7651 30.7338C33.1555 28.2745 33.9421 25.8999 34.645 23.5171C35.1797 21.7088 35.6433 19.885 36.1513 18.0695C36.6098 16.3983 37.0684 14.727 37.5223 13.0528C37.6619 13.4609 37.8069 13.8686 37.9322 14.2764C38.2709 15.3912 38.1503 15.2999 38.224 16.3814C38.2485 17.1721 38.296 17.9637 38.2931 18.7561C38.3681 23.6015 37.9491 28.4865 36.4908 33.1269C36.1082 34.3476 35.7478 35.5724 35.3773 36.7945C35.3813 36.7329 35.3832 36.6725 35.3872 36.6109C35.4294 35.5981 35.4649 34.5834 35.4698 33.5695C35.5961 30.6527 35.4854 27.7314 35.5643 24.8108C34.8328 28.3426 34.5071 31.9705 34.7221 35.5715C34.77 36.3882 34.7904 37.2209 35.0012 38.0115C34.9524 38.1667 34.9049 38.3241 34.854 38.4805C34.6845 39.0528 34.4683 39.6126 34.3535 40.2013C34.3066 40.1691 34.2598 40.1368 34.2129 40.1046ZM33.4592 39.5965C33.2622 38.8884 33.0506 38.1209 32.8953 37.5045C32.7711 37.0057 32.6621 36.5038 32.5531 36.0019C32.9764 37.3758 33.5265 38.7103 34.1009 40.028C33.8852 39.8843 33.6715 39.7393 33.4592 39.5965ZM31.037 30.0398C30.6835 29.0606 30.0823 28.2102 29.4695 27.3835C28.5926 26.1191 27.7111 24.8516 26.6002 23.7786C26.3714 23.5633 26.1363 23.3517 25.9045 23.141C25.6324 22.3322 25.4887 21.4719 25.2784 20.6528C24.9086 19.0193 24.5498 17.3851 24.2503 15.7364C24.3076 17.6407 24.5579 19.5466 25.093 21.3784C25.2511 21.8576 25.3953 22.3618 25.581 22.8448C24.5094 21.8791 23.4071 20.9481 22.2854 20.0424C22.2924 19.7023 22.2971 19.3777 22.3032 19.0606C22.3324 19.2725 22.3561 19.4848 22.368 19.7011C22.3871 19.3087 22.3908 18.914 22.3575 18.5237C22.3477 18.4334 22.3346 18.3421 22.3227 18.253C22.4717 12.2644 22.8871 10.3328 26.0512 3.89685C26.4047 3.23245 26.7244 2.53385 27.107 1.88085C27.4137 2.62725 27.8231 3.40485 28.3412 4.00375C28.8786 4.70465 29.5618 5.26196 30.181 5.88446C31.398 7.15586 32.505 8.36375 33.3836 9.80245C34.3787 11.4675 34.7964 13.4236 35.0563 15.3267C35.0712 15.5921 35.076 15.8548 35.0745 16.1211C35.0446 16.2259 35.0168 16.3295 34.9848 16.4355C34.198 19.392 33.3143 22.3226 32.542 25.2848C32.6455 22.7736 32.6778 20.2613 32.6693 17.747C32.6787 16.7164 32.6935 15.6855 32.7214 14.6527C32.7342 13.863 32.8107 13.0562 32.561 12.291C32.508 12.1211 32.4517 11.9502 32.3909 11.7764C32.4688 11.6325 32.5264 11.4778 32.5755 11.3281C32.7154 10.866 32.6318 10.4229 32.3821 10.0785C32.3639 10.0127 32.3479 9.94565 32.3318 9.87875C32.312 9.58515 32.0134 9.42995 31.7433 9.47575C31.6519 9.46915 31.5576 9.46715 31.4672 9.47695C31.2337 9.41975 31.0054 9.44986 30.8162 9.54776C30.6226 9.46186 30.3895 9.42985 30.2404 9.61195C29.7665 9.87705 29.6174 10.4602 29.6974 10.9705C29.8217 11.7092 30.5175 12.2932 31.2535 12.3794C31.2784 12.6475 31.2808 12.9256 31.2626 13.2609C31.2495 14.3389 31.2683 15.4182 31.3165 16.4946C31.37 18.0989 31.5679 20.3739 31.7054 21.6247C31.8302 23.411 31.9789 25.1948 32.1364 26.9791C31.965 27.7926 31.8279 28.6117 31.7327 29.4349C31.3678 28.7051 31.0868 27.9297 30.903 27.132C30.7094 26.0972 30.5995 25.0507 30.3073 24.036C30.1776 23.0434 30.2945 22.0327 30.2597 21.0332C30.2546 19.8161 30.2252 18.5961 30.2058 17.3787C29.9419 19.3527 29.692 21.3412 29.6396 23.3343C29.6468 23.8752 29.8523 24.3778 29.9626 24.9016C30.2449 26.5743 30.7217 28.2365 31.7087 29.6379C31.6716 29.97 31.6443 30.2993 31.6261 30.6346C30.7812 28.2614 29.514 26.0079 29.1297 23.4931C28.9217 21.2154 29.6023 18.8625 28.8989 16.6365C28.8697 16.5516 28.8469 16.4632 28.8261 16.3735C28.9429 16.2919 29.0455 16.1762 29.1264 16.0081C29.272 15.732 29.2296 15.4091 29.1518 15.1179C28.9736 14.3396 28.3884 13.6438 27.5927 13.4593C27.1226 13.3494 26.7876 13.8112 26.5321 14.1366C26.1179 14.74 26.4895 15.4716 27.0325 15.8642C27.1177 16.007 27.2776 16.1322 27.4428 16.1639C27.5265 16.2257 27.612 16.2808 27.6992 16.3293C27.8029 16.7241 27.9142 17.1174 27.9463 17.5253C27.9881 18.0575 27.9727 19.8994 28.0089 20.867C27.867 24.4904 30.0996 27.5309 31.6258 30.6488C31.6196 30.7456 31.6146 30.8445 31.6095 30.9435C31.6774 31.6725 31.7793 32.4016 31.9017 33.1273C31.6777 32.079 31.4385 31.0337 31.037 30.0398ZM43.4211 16.9986C43.2603 16.8033 43.0534 16.6602 42.8055 16.6564C43.0398 16.524 43.3097 16.4585 43.4748 16.5439C43.5514 16.7059 43.5191 16.8601 43.4211 16.9986ZM38.5945 9.64636C38.6801 9.52066 38.7702 9.39796 38.8649 9.27836C39.4335 8.59996 40.0961 8.01115 40.7357 7.40185C41.8812 6.16725 43.2979 5.54415 44.9686 4.80835C45.8199 4.42405 46.6397 3.97055 47.4101 3.44105C47.4227 3.54115 47.4331 3.64246 47.449 3.74336C47.5698 5.99236 48.9918 7.79496 49.4617 9.76326C49.9849 11.5794 49.9473 12.8692 49.9212 14.7709C49.9293 15.6558 50.0289 16.5472 49.9318 17.4307C49.8188 18.1399 49.6471 18.8406 49.4229 19.5235C49.3614 19.593 49.3011 19.6646 49.2383 19.7319C47.892 21.2547 46.4986 22.7399 45.1395 24.2503C42.912 27.2111 40.8869 30.3318 39.0656 33.5608C38.3988 34.7196 37.7423 35.8866 37.0913 37.0532C37.7928 34.9565 38.4538 32.8437 38.9193 30.6855C39.8324 29.1021 40.6427 27.4679 41.401 25.8072C41.9348 24.6235 42.5192 23.4247 42.6687 22.1183C42.8136 20.9897 42.9484 19.8585 43.0149 18.7215C43.2798 18.6617 43.5127 18.5075 43.658 18.2259C43.7812 18.0334 43.8148 17.8078 43.7407 17.5964C43.8861 17.4079 43.9762 17.1921 43.9576 16.9544C43.9235 16.6069 43.6119 16.3264 43.2818 16.2487C43.0296 16.2277 42.7954 16.3601 42.6157 16.5429C42.5352 16.4623 42.4388 16.3881 42.3244 16.327C41.7608 15.9915 41.4107 16.2021 41.2949 16.8282C41.1766 17.3229 41.1862 17.902 41.5925 18.2633C41.6346 18.3068 41.6797 18.3458 41.7268 18.3835C41.71 18.6135 41.6919 18.8414 41.6773 19.056C41.5618 20.2891 41.5965 21.5428 41.3395 22.7559C40.6469 25.3473 39.804 27.8984 38.9686 30.4481C39.0278 30.1738 39.0815 29.9 39.1318 29.6252C39.6264 26.7103 39.7964 23.7569 39.779 20.8015C40.4073 18.4167 40.8054 15.9755 40.9698 13.5111C40.4167 15.4684 40.0127 17.464 39.761 19.4789C39.7346 18.4548 39.6918 17.4318 39.6305 16.4109C39.6143 15.4827 39.2225 14.6328 38.9211 13.7732C38.6608 13.1609 38.2833 11.7098 38.3097 11.511C38.2056 10.8904 38.494 10.2551 38.5945 9.64636ZM51.8975 16.5161C51.5177 16.9981 51.1383 17.4854 50.7497 17.9668C50.7765 17.8666 50.8 17.7655 50.8223 17.6622C51.1749 17.2751 51.5346 16.8951 51.8975 16.5161ZM56.461 12.201C57.8351 10.9954 59.5779 9.34236 60.7824 8.48876C61.3694 8.08206 61.9833 7.72195 62.6233 7.41185C62.6216 7.43825 62.622 7.46336 62.6228 7.49406C62.5065 9.46466 62.2207 11.4203 61.9181 13.3714C61.507 15.6873 61.1668 18.033 60.3588 20.2533C59.8539 21.7366 58.5598 23.5993 57.3842 25.0264C57.161 25.305 56.9472 25.5951 56.7285 25.8767C55.551 26.5226 54.4016 27.2173 53.2796 27.9498C53.0546 28.1079 52.8391 28.2776 52.6305 28.4545C53.1809 27.2358 53.6142 25.9661 53.8814 24.6482C55.6929 22.1507 56.7616 19.1444 57.6602 16.2053C56.8099 17.922 55.9313 19.6238 55.106 21.3543C54.7795 22.085 54.4362 22.8113 54.0726 23.5268C54.357 21.637 54.4851 19.6821 54.0029 17.8198C53.8732 17.1745 53.456 16.5935 52.8399 16.3336C52.6143 16.2266 52.3304 16.1702 52.1101 16.2974C53.4972 14.8696 54.9482 13.5037 56.461 12.201ZM53.5195 29.2996C54.5684 28.5727 55.7481 28.0723 56.8865 27.5054C59.6841 26.0455 62.6296 24.9154 65.6677 24.0679C66.5698 23.8154 67.5468 23.4434 68.3903 23.2021C68.1582 24.3556 67.7382 25.4821 67.3451 26.5818C66.6974 28.2237 65.0715 30.9841 63.7517 32.8023C62.4597 34.7175 61.0024 36.5078 59.2511 38.0188C57.068 40.1124 55.231 41.749 52.5221 43.0052C48.6634 44.8235 44.2995 44.6318 40.07 43.357C38.7805 42.9775 37.4944 42.5452 36.2735 41.9763C38.0993 41.7977 39.9439 42.0036 41.7502 41.6103C44.3401 41.2193 46.7352 40.1189 49.1497 39.1598C49.3474 39.0767 49.5436 38.9861 49.7401 38.9008C49.5286 38.9552 49.3162 39.0128 49.1026 39.0684C46.1609 39.7699 43.2976 40.7734 40.3189 41.3324C39.3954 41.538 38.4482 41.585 37.5122 41.7102C37.7577 41.656 37.9987 41.5988 38.2417 41.5404C40.4349 41.0198 42.418 39.9934 44.2138 38.677C45.9958 38.1339 47.7981 37.6356 49.4953 36.8675C51.0875 36.2109 52.7121 35.6006 54.1733 34.6779C56.0547 33.6369 57.6213 32.1336 59.2582 30.7621C57.3693 31.8978 55.5896 33.2276 53.5839 34.1511C52.1057 34.9368 50.52 35.4824 49.0002 36.1763C47.804 36.785 46.5621 37.2902 45.3276 37.808C46.8325 36.5551 48.1967 35.1123 49.4299 33.6236C49.9886 32.9085 50.5226 32.1653 51.0167 31.397C51.8149 30.6566 52.6115 29.9086 53.5195 29.2996ZM39.06 45.6629C42.3257 48.3696 46.4136 50.0057 50.5307 50.9047C51.5849 51.1066 52.6523 51.253 53.7209 51.3477C50.8946 51.3979 47.8166 50.9241 45.1201 50.0888C43.3292 49.5695 41.3882 48.6877 39.5299 47.8317C37.6297 46.9716 36.8259 44.4054 36.2044 42.1207C37.168 43.2957 37.8955 44.6633 39.06 45.6629ZM33.1956 53.0224C32.6071 54.3902 32.83 54.8546 33.2977 53.0623C33.8707 53.2624 34.515 53.2434 35.0546 52.9404C36.3964 52.3295 37.6985 50.7644 37.7603 49.2573C37.7553 48.9354 37.6083 48.6418 37.5447 48.3311C37.5085 47.8183 37.3888 47.3028 37.4335 46.7884C37.4429 46.7067 37.461 46.6256 37.4791 46.5446C38.5664 48.1734 40.3515 48.9417 43.7131 50.4351C47.4922 52.001 51.6171 52.664 55.6983 52.4541C56.5547 52.372 57.4148 52.2623 58.2499 52.0456C58.3744 52.002 58.5562 51.9988 58.5748 51.8355C58.5805 51.7475 58.5592 51.6666 58.514 51.5882C57.6905 50.3917 56.0581 50.47 54.7632 50.3844C53.4086 50.3079 52.1953 50.212 50.9302 50.0019C46.8915 49.3316 41.8401 47.6361 38.7723 44.9592C37.8708 44.0873 37.1511 43.0512 36.29 42.1419C37.7143 42.9407 39.2439 43.56 40.7793 44.1111C44.7453 45.5408 49.2975 46.1124 53.2933 44.4974C56.1219 43.3359 58.4982 41.3765 60.6822 39.2796C62.3529 37.849 63.8057 36.2026 65.049 34.3889C66.3188 32.6504 67.5029 30.8371 68.4451 28.898C69.098 27.5636 69.5662 26.1438 69.9469 24.7096C70.0759 24.028 70.372 23.2837 70.0796 22.6109C69.0605 20.8213 67.4423 21.829 65.9632 22.2904C63.7577 23.0243 61.4935 23.6029 59.3604 24.5407C59.1291 24.6489 58.8969 24.7603 58.6668 24.8706C61.6225 21.9384 62.4616 19.1409 63.2566 14.8777C63.5546 13.3247 63.7627 11.7529 63.9125 10.178C64.0206 9.03955 64.1728 7.87005 63.9187 6.74015C63.7501 6.26705 63.308 5.91226 62.8338 5.77086C62.5562 5.69106 62.3053 5.89246 62.0557 5.98846C59.8418 6.94756 58.1651 8.73466 56.5489 10.4699C54.4767 12.6236 52.5587 14.8438 50.885 17.3012C50.9731 16.7053 50.9955 16.0936 51.0463 15.4967C51.2055 14.1338 51.3881 12.7575 51.1375 11.3941C50.9737 10.181 50.5885 9.01955 50.076 7.91185C49.7148 7.06125 49.3871 6.54726 49.2041 5.72656C49.0099 4.97446 48.8274 3.55765 48.8032 3.24675C48.7474 2.62665 48.846 2.49905 48.6827 2.07935C48.4263 1.65975 47.9933 1.29125 47.4886 1.24375C47.3663 1.23245 47.2844 1.31075 47.2025 1.38905C46.6462 2.01525 46.3009 2.12145 45.7449 2.55265C44.4135 3.46535 42.854 3.97315 41.5039 4.84865C40.8496 5.26595 40.2663 5.77215 39.7602 6.35805C39.1577 7.03635 38.512 7.68876 37.9935 8.43436C37.8567 8.36366 37.709 8.31335 37.5612 8.29695C37.34 8.28065 37.3001 8.52965 37.2229 8.68445C36.5517 10.6281 36.0369 12.6226 35.4964 14.6067C35.4699 14.3113 35.4379 14.0163 35.4017 13.7237C35.2357 12.5458 34.9628 11.359 34.4317 10.2874C33.3478 8.23865 31.7973 6.46785 30.1386 4.86676C29.3836 4.13626 28.8668 3.50546 28.4201 2.43316C28.1721 1.93526 28.1158 1.41705 27.8011 0.847455C27.6394 0.582155 27.3886 0.382455 27.1287 0.216155C27.3934 0.371255 26.766 -0.0403455 26.5681 0.00325448C26.32 0.0137545 26.1698 0.286855 26.0393 0.466755C25.7252 0.984155 25.4335 1.51125 25.151 2.04425C23.7836 4.72885 22.569 7.55105 21.9833 10.5185C21.705 12.2523 21.6967 13.994 21.7979 15.7346C21.6668 15.3217 21.5108 14.9147 21.3186 14.523C21.1128 14.1617 20.7975 13.9285 20.592 13.5727C20.2218 12.99 19.7119 12.1462 19.2458 11.4269C18.6525 10.3601 18.0084 9.32266 17.4502 8.23846C16.6419 6.43736 15.8445 4.61586 14.7547 2.96306C14.6802 2.72646 13.3469 1.18035 12.7519 2.38525C12.1918 3.71415 11.756 5.10665 11.4716 6.52195C11.2552 8.53915 11.0504 10.5666 10.8947 12.5911C10.8015 14.2886 11.0132 15.9907 11.3465 17.6538C11.8186 19.9146 12.7179 22.0642 13.751 24.1225C14.7214 26.0871 15.8498 27.9632 17.2613 29.6449C16.1024 28.0094 15.2129 26.2241 14.4638 24.369C13.1112 21.2582 12.3307 17.8764 12.3243 14.813C12.3814 12.3682 12.7143 9.93635 12.9079 7.50305C13.1 6.43185 13.4017 5.37936 13.7476 4.34946C13.9144 3.93396 13.941 3.70115 14.06 3.45735C14.3208 3.89425 14.6046 4.40536 14.8639 4.87416C15.4155 5.92256 15.913 6.99946 16.4423 8.05796C17.3025 9.53816 18.2064 10.9962 19.2007 12.3906C19.6754 13.071 20.1131 13.7899 20.7202 14.3572C21.1358 15.0182 21.4224 15.7593 21.6663 16.4997C21.7515 16.7696 21.8367 17.0395 21.9156 17.3131C21.9948 18.1937 22.0894 19.0767 22.1795 19.9567C21.8836 19.7181 21.5876 19.4795 21.2874 19.2432C20.7598 18.8333 20.0999 18.1157 19.4858 17.414C18.9591 16.7268 17.0167 14.287 16.0477 14.6289C15.9058 14.7109 15.9597 14.8972 16.0204 15.0316C16.0184 15.0526 16.0947 15.3219 16.088 15.3738C16.1251 15.6094 16.1472 15.848 16.1746 16.0864C16.3758 17.467 16.3302 18.4592 16.345 20.0209C16.4161 22.355 16.4068 24.7017 16.7114 27.0196C17.0085 28.5906 17.7339 30.0527 18.4205 31.4864C19.453 33.4998 20.7118 35.4306 22.3322 37.0143C22.2218 36.965 22.1106 36.9191 22.0002 36.8699C19.7581 35.9897 17.6889 34.7782 15.7253 33.3926C13.5896 32.0952 11.5279 30.3342 9.28149 28.7082C11.3931 30.5165 13.4188 32.4452 15.7959 33.9111C16.8907 34.6431 18.0051 35.3553 19.1911 35.9273C20.2541 36.4037 21.357 36.778 22.4647 37.1411C22.7657 37.4277 23.0782 37.7048 23.404 37.9657C24.6225 38.9511 26.0079 39.6142 27.4712 40.06C26.4618 39.9113 25.4587 39.7392 24.4645 39.514C22.3022 39.2712 20.0815 38.8051 18.2421 37.6981C16.4075 36.3793 14.3701 35.0026 12.373 33.7889C13.6243 34.7186 14.9022 35.616 16.1423 36.5607C17.1829 37.3748 18.1873 38.2635 19.4066 38.805C21.1215 39.6083 23.0183 39.9733 24.8999 40.0675C26.1827 40.2984 27.4867 40.4097 28.7902 40.4027C30.3113 40.7333 31.8898 40.8697 33.4278 40.9166C30.0507 40.4432 25.9801 39.4975 23.7726 37.4253C21.9242 35.7304 20.811 33.7974 19.6529 31.4442C18.8937 29.8406 18.231 28.3846 18.1415 26.5469C18.0075 24.9157 17.9181 22.1487 17.8786 20.0308C17.9191 18.8975 17.8055 17.7713 17.6461 16.6489C17.6354 16.5816 17.6282 16.5152 17.6197 16.4467C18.2215 17.1075 18.9453 18.0678 19.6828 18.7971C20.4383 19.5922 21.3334 20.2278 22.1895 20.9084C23.6399 22.1976 24.7274 23.01 25.9086 24.1949C26.8114 25.0886 27.4666 26.0179 28.2869 27.1598C28.8457 27.9075 29.3857 28.5249 29.7563 29.3135C30.2818 30.346 30.5895 31.4562 30.9236 32.5681C31.221 33.6164 31.5905 34.6428 31.8934 35.6909C32.2892 36.9733 32.7513 38.2089 33.2228 39.4364C31.5319 38.303 29.895 37.2287 28.2532 36.0189C27.0604 35.078 26.0423 33.5788 25.1625 32.1577C24.8238 31.571 24.5531 30.9506 24.2389 30.3526C24.3038 30.5383 24.3635 30.7297 24.4241 30.9178C25.0628 32.9242 26.1948 34.8407 27.7719 36.2516C29.5036 37.627 31.4273 38.7333 33.3643 39.8038C33.5306 40.2387 33.7012 40.6712 33.8664 41.1039C33.7894 40.7897 33.6732 40.3682 33.5446 39.9058C33.7645 40.0274 33.9852 40.1457 34.2051 40.2673C34.237 40.342 34.2677 40.4147 34.3017 40.4883C34.2758 40.6783 34.2718 40.867 34.3402 41.0393C34.0749 41.1276 33.8077 41.2225 33.5451 41.3205C32.3277 41.4669 31.1067 41.5337 29.8776 41.5033C28.5318 41.4811 27.1809 41.5041 25.8418 41.3566C22.6072 40.7924 19.4139 39.9672 16.436 38.8793C12.7565 37.6033 9.36489 36.195 6.58309 33.8471C5.95249 33.2538 4.71099 31.7931 4.00449 30.9019C3.67679 30.4274 3.37609 29.525 3.13059 28.7574C2.66419 27.5044 2.37139 26.2049 2.11989 24.8985C2.00899 24.183 1.61409 23.1175 1.45759 22.499C1.54749 22.5375 1.63539 22.5771 1.72229 22.6201C2.09419 22.8093 2.99569 23.4071 3.58919 23.6915C5.09849 24.3931 6.71329 24.8616 8.33369 25.2224C10.0466 25.5721 11.7793 26.0149 13.2839 26.9283C15.0892 28.216 16.5582 29.8701 18.1455 31.3966C17.3124 30.4966 16.5419 29.5435 15.7223 28.6328C15.0411 27.9077 14.2774 27.2698 13.5261 26.6191C10.9149 24.7037 7.55649 24.468 4.66439 23.3135C3.69449 22.9641 3.03779 22.5751 2.15709 22.0132C1.73239 21.7473 1.28659 21.5132 0.819793 21.3309C0.618293 21.2608 0.415992 21.1206 0.196292 21.1655C-0.244608 21.2139 0.188893 22.2486 0.231693 22.5233C0.647393 23.6982 0.753093 24.9476 1.03699 26.1535C1.50589 27.7043 1.89119 29.4136 2.74679 30.7977C3.16239 31.405 3.68619 31.916 4.00429 32.3057C4.56179 32.9581 5.10259 33.6259 5.73899 34.2046C8.52409 36.6268 11.9082 38.2569 15.3711 39.4658C19.0252 40.8496 22.8525 41.868 26.7561 42.1674C28.7073 42.1423 30.6754 42.034 32.5997 41.6884C32.0421 41.9114 31.4859 42.1366 30.9216 42.3381C27.0453 43.8079 23.3159 45.625 19.4843 47.2017C16.6221 48.2413 13.639 48.9102 10.7361 49.8208C10.328 49.9406 9.91839 50.0529 9.50959 50.1618C9.16969 50.3411 9.64029 50.8969 9.81809 51.0484C10.234 51.4409 10.8144 51.5266 11.363 51.4838C11.8873 51.4918 12.4098 51.5065 12.9331 51.5178C15.1837 51.5515 17.4354 51.4404 19.639 50.9476C21.898 50.5556 24.162 49.9913 26.2492 49.0376C28.9298 47.3459 31.5453 45.4631 33.7 43.1345C33.4567 43.5348 33.2146 43.9373 32.9725 44.3397C32.1502 45.6646 31.2979 47.0745 31.2361 48.6747C31.2481 49.9867 31.4385 51.4612 32.363 52.4609C32.5926 52.7068 32.8835 52.8976 33.1956 53.0224Z"/>
</mask>
<path d="M33.6521 52.2674C33.3844 52.2977 33.1679 52.2505 33.0011 52.1914C32.7893 51.9127 32.5547 51.1444 32.4461 50.5405C31.9397 48.6752 32.5974 46.762 33.3436 45.0461C33.6965 44.1702 34.0235 43.2838 34.3505 42.3975C34.5542 42.1584 34.7534 41.9164 34.9446 41.6704C35.2522 41.8656 35.6128 41.9765 35.9777 41.9776C35.9832 41.9773 35.9887 41.977 35.9941 41.9766C36.0054 41.9815 36.0179 41.9884 36.027 41.9944C36.3694 44.0843 36.7692 45.452 37.4324 46.4783C37.4063 46.5358 37.3802 46.5932 37.3574 46.6516C37.1839 47.1387 37.2172 47.6758 37.1755 48.1856C37.193 48.441 37.2806 48.6954 37.2523 48.9547C37.1867 49.4133 36.956 49.8403 36.6581 50.1902C35.9232 51.1821 34.8374 52.0067 33.6521 52.2674ZM24.9252 48.1583C22.0822 49.0795 18.7059 49.806 16.1562 50.1738C15.3063 50.2719 14.4498 50.3145 13.5962 50.3329C14.3248 50.1128 15.0525 49.896 15.7872 49.6864C17.3751 49.213 18.9971 48.833 20.5283 48.1833C24.4393 46.4506 28.1551 44.3166 31.9858 42.4156C32.6503 42.0941 33.2945 41.7278 33.955 41.3945C34.1332 41.3509 34.3105 41.3106 34.485 41.2607C34.5894 41.3925 34.7133 41.5045 34.8484 41.6016C34.7478 41.6964 34.6448 41.787 34.5451 41.8784C34.576 41.79 34.6101 41.7025 34.6422 41.6162C34.5569 41.7473 34.4753 41.8848 34.3913 42.0181C31.5806 44.5361 28.2695 46.4421 24.9252 48.1583ZM35.9032 40.3516C35.947 40.2416 35.992 40.1337 36.0374 40.0312C36.0664 40.0766 36.0987 40.1229 36.129 40.1704C36.0537 40.2308 35.9797 40.2933 35.9032 40.3516ZM36.337 39.2736C36.3993 39.088 36.4637 38.9011 36.5272 38.7176C40.0247 34.1311 43.2098 29.307 46.8111 24.8075C48.7906 22.6987 50.7545 20.5679 52.6183 18.3565C52.6239 18.4493 52.6282 18.54 52.6335 18.6274C52.7313 21.2426 52.291 23.8748 51.4443 26.3462C50.1612 29.7784 47.3246 33.7828 44.2408 36.4981C41.9511 38.6419 39.1595 40.2 35.8562 40.8278C35.8522 40.816 35.849 40.8008 35.8462 40.7911C35.8469 40.8021 35.8488 40.8151 35.8507 40.8281C35.8431 40.8297 35.8376 40.83 35.8301 40.8315C35.7901 40.8405 35.7522 40.8483 35.7164 40.8548C35.7446 40.7764 35.7715 40.6959 35.8006 40.6142C35.9547 40.5337 36.1062 40.449 36.2578 40.3643C36.2841 40.3999 36.3095 40.439 36.3336 40.4759C36.3137 40.4365 36.2938 40.3972 36.2739 40.3578C37.9344 39.433 39.467 38.2771 40.8357 36.9644C42.5087 35.2247 43.8901 33.2296 45.2321 31.2347C45.2563 31.1982 45.2804 31.1617 45.3045 31.1252C45.0885 31.3431 44.8705 31.5621 44.6545 31.78C41.8725 34.6119 39.2686 37.6545 36.1656 40.1408C36.1343 40.0769 36.101 40.0143 36.0697 39.9504C36.1946 39.658 36.3012 39.4073 36.337 39.2736ZM34.2129 40.1046C33.5236 37.9862 32.8538 35.4809 32.7779 33.6128C32.7202 32.652 32.5539 31.6889 32.7651 30.7338C33.1555 28.2745 33.9421 25.8999 34.645 23.5171C35.1797 21.7088 35.6433 19.885 36.1513 18.0695C36.6098 16.3983 37.0684 14.727 37.5223 13.0528C37.6619 13.4609 37.8069 13.8686 37.9322 14.2764C38.2709 15.3912 38.1503 15.2999 38.224 16.3814C38.2485 17.1721 38.296 17.9637 38.2931 18.7561C38.3681 23.6015 37.9491 28.4865 36.4908 33.1269C36.1082 34.3476 35.7478 35.5724 35.3773 36.7945C35.3813 36.7329 35.3832 36.6725 35.3872 36.6109C35.4294 35.5981 35.4649 34.5834 35.4698 33.5695C35.5961 30.6527 35.4854 27.7314 35.5643 24.8108C34.8328 28.3426 34.5071 31.9705 34.7221 35.5715C34.77 36.3882 34.7904 37.2209 35.0012 38.0115C34.9524 38.1667 34.9049 38.3241 34.854 38.4805C34.6845 39.0528 34.4683 39.6126 34.3535 40.2013C34.3066 40.1691 34.2598 40.1368 34.2129 40.1046ZM33.4592 39.5965C33.2622 38.8884 33.0506 38.1209 32.8953 37.5045C32.7711 37.0057 32.6621 36.5038 32.5531 36.0019C32.9764 37.3758 33.5265 38.7103 34.1009 40.028C33.8852 39.8843 33.6715 39.7393 33.4592 39.5965ZM31.037 30.0398C30.6835 29.0606 30.0823 28.2102 29.4695 27.3835C28.5926 26.1191 27.7111 24.8516 26.6002 23.7786C26.3714 23.5633 26.1363 23.3517 25.9045 23.141C25.6324 22.3322 25.4887 21.4719 25.2784 20.6528C24.9086 19.0193 24.5498 17.3851 24.2503 15.7364C24.3076 17.6407 24.5579 19.5466 25.093 21.3784C25.2511 21.8576 25.3953 22.3618 25.581 22.8448C24.5094 21.8791 23.4071 20.9481 22.2854 20.0424C22.2924 19.7023 22.2971 19.3777 22.3032 19.0606C22.3324 19.2725 22.3561 19.4848 22.368 19.7011C22.3871 19.3087 22.3908 18.914 22.3575 18.5237C22.3477 18.4334 22.3346 18.3421 22.3227 18.253C22.4717 12.2644 22.8871 10.3328 26.0512 3.89685C26.4047 3.23245 26.7244 2.53385 27.107 1.88085C27.4137 2.62725 27.8231 3.40485 28.3412 4.00375C28.8786 4.70465 29.5618 5.26196 30.181 5.88446C31.398 7.15586 32.505 8.36375 33.3836 9.80245C34.3787 11.4675 34.7964 13.4236 35.0563 15.3267C35.0712 15.5921 35.076 15.8548 35.0745 16.1211C35.0446 16.2259 35.0168 16.3295 34.9848 16.4355C34.198 19.392 33.3143 22.3226 32.542 25.2848C32.6455 22.7736 32.6778 20.2613 32.6693 17.747C32.6787 16.7164 32.6935 15.6855 32.7214 14.6527C32.7342 13.863 32.8107 13.0562 32.561 12.291C32.508 12.1211 32.4517 11.9502 32.3909 11.7764C32.4688 11.6325 32.5264 11.4778 32.5755 11.3281C32.7154 10.866 32.6318 10.4229 32.3821 10.0785C32.3639 10.0127 32.3479 9.94565 32.3318 9.87875C32.312 9.58515 32.0134 9.42995 31.7433 9.47575C31.6519 9.46915 31.5576 9.46715 31.4672 9.47695C31.2337 9.41975 31.0054 9.44986 30.8162 9.54776C30.6226 9.46186 30.3895 9.42985 30.2404 9.61195C29.7665 9.87705 29.6174 10.4602 29.6974 10.9705C29.8217 11.7092 30.5175 12.2932 31.2535 12.3794C31.2784 12.6475 31.2808 12.9256 31.2626 13.2609C31.2495 14.3389 31.2683 15.4182 31.3165 16.4946C31.37 18.0989 31.5679 20.3739 31.7054 21.6247C31.8302 23.411 31.9789 25.1948 32.1364 26.9791C31.965 27.7926 31.8279 28.6117 31.7327 29.4349C31.3678 28.7051 31.0868 27.9297 30.903 27.132C30.7094 26.0972 30.5995 25.0507 30.3073 24.036C30.1776 23.0434 30.2945 22.0327 30.2597 21.0332C30.2546 19.8161 30.2252 18.5961 30.2058 17.3787C29.9419 19.3527 29.692 21.3412 29.6396 23.3343C29.6468 23.8752 29.8523 24.3778 29.9626 24.9016C30.2449 26.5743 30.7217 28.2365 31.7087 29.6379C31.6716 29.97 31.6443 30.2993 31.6261 30.6346C30.7812 28.2614 29.514 26.0079 29.1297 23.4931C28.9217 21.2154 29.6023 18.8625 28.8989 16.6365C28.8697 16.5516 28.8469 16.4632 28.8261 16.3735C28.9429 16.2919 29.0455 16.1762 29.1264 16.0081C29.272 15.732 29.2296 15.4091 29.1518 15.1179C28.9736 14.3396 28.3884 13.6438 27.5927 13.4593C27.1226 13.3494 26.7876 13.8112 26.5321 14.1366C26.1179 14.74 26.4895 15.4716 27.0325 15.8642C27.1177 16.007 27.2776 16.1322 27.4428 16.1639C27.5265 16.2257 27.612 16.2808 27.6992 16.3293C27.8029 16.7241 27.9142 17.1174 27.9463 17.5253C27.9881 18.0575 27.9727 19.8994 28.0089 20.867C27.867 24.4904 30.0996 27.5309 31.6258 30.6488C31.6196 30.7456 31.6146 30.8445 31.6095 30.9435C31.6774 31.6725 31.7793 32.4016 31.9017 33.1273C31.6777 32.079 31.4385 31.0337 31.037 30.0398ZM43.4211 16.9986C43.2603 16.8033 43.0534 16.6602 42.8055 16.6564C43.0398 16.524 43.3097 16.4585 43.4748 16.5439C43.5514 16.7059 43.5191 16.8601 43.4211 16.9986ZM38.5945 9.64636C38.6801 9.52066 38.7702 9.39796 38.8649 9.27836C39.4335 8.59996 40.0961 8.01115 40.7357 7.40185C41.8812 6.16725 43.2979 5.54415 44.9686 4.80835C45.8199 4.42405 46.6397 3.97055 47.4101 3.44105C47.4227 3.54115 47.4331 3.64246 47.449 3.74336C47.5698 5.99236 48.9918 7.79496 49.4617 9.76326C49.9849 11.5794 49.9473 12.8692 49.9212 14.7709C49.9293 15.6558 50.0289 16.5472 49.9318 17.4307C49.8188 18.1399 49.6471 18.8406 49.4229 19.5235C49.3614 19.593 49.3011 19.6646 49.2383 19.7319C47.892 21.2547 46.4986 22.7399 45.1395 24.2503C42.912 27.2111 40.8869 30.3318 39.0656 33.5608C38.3988 34.7196 37.7423 35.8866 37.0913 37.0532C37.7928 34.9565 38.4538 32.8437 38.9193 30.6855C39.8324 29.1021 40.6427 27.4679 41.401 25.8072C41.9348 24.6235 42.5192 23.4247 42.6687 22.1183C42.8136 20.9897 42.9484 19.8585 43.0149 18.7215C43.2798 18.6617 43.5127 18.5075 43.658 18.2259C43.7812 18.0334 43.8148 17.8078 43.7407 17.5964C43.8861 17.4079 43.9762 17.1921 43.9576 16.9544C43.9235 16.6069 43.6119 16.3264 43.2818 16.2487C43.0296 16.2277 42.7954 16.3601 42.6157 16.5429C42.5352 16.4623 42.4388 16.3881 42.3244 16.327C41.7608 15.9915 41.4107 16.2021 41.2949 16.8282C41.1766 17.3229 41.1862 17.902 41.5925 18.2633C41.6346 18.3068 41.6797 18.3458 41.7268 18.3835C41.71 18.6135 41.6919 18.8414 41.6773 19.056C41.5618 20.2891 41.5965 21.5428 41.3395 22.7559C40.6469 25.3473 39.804 27.8984 38.9686 30.4481C39.0278 30.1738 39.0815 29.9 39.1318 29.6252C39.6264 26.7103 39.7964 23.7569 39.779 20.8015C40.4073 18.4167 40.8054 15.9755 40.9698 13.5111C40.4167 15.4684 40.0127 17.464 39.761 19.4789C39.7346 18.4548 39.6918 17.4318 39.6305 16.4109C39.6143 15.4827 39.2225 14.6328 38.9211 13.7732C38.6608 13.1609 38.2833 11.7098 38.3097 11.511C38.2056 10.8904 38.494 10.2551 38.5945 9.64636ZM51.8975 16.5161C51.5177 16.9981 51.1383 17.4854 50.7497 17.9668C50.7765 17.8666 50.8 17.7655 50.8223 17.6622C51.1749 17.2751 51.5346 16.8951 51.8975 16.5161ZM56.461 12.201C57.8351 10.9954 59.5779 9.34236 60.7824 8.48876C61.3694 8.08206 61.9833 7.72195 62.6233 7.41185C62.6216 7.43825 62.622 7.46336 62.6228 7.49406C62.5065 9.46466 62.2207 11.4203 61.9181 13.3714C61.507 15.6873 61.1668 18.033 60.3588 20.2533C59.8539 21.7366 58.5598 23.5993 57.3842 25.0264C57.161 25.305 56.9472 25.5951 56.7285 25.8767C55.551 26.5226 54.4016 27.2173 53.2796 27.9498C53.0546 28.1079 52.8391 28.2776 52.6305 28.4545C53.1809 27.2358 53.6142 25.9661 53.8814 24.6482C55.6929 22.1507 56.7616 19.1444 57.6602 16.2053C56.8099 17.922 55.9313 19.6238 55.106 21.3543C54.7795 22.085 54.4362 22.8113 54.0726 23.5268C54.357 21.637 54.4851 19.6821 54.0029 17.8198C53.8732 17.1745 53.456 16.5935 52.8399 16.3336C52.6143 16.2266 52.3304 16.1702 52.1101 16.2974C53.4972 14.8696 54.9482 13.5037 56.461 12.201ZM53.5195 29.2996C54.5684 28.5727 55.7481 28.0723 56.8865 27.5054C59.6841 26.0455 62.6296 24.9154 65.6677 24.0679C66.5698 23.8154 67.5468 23.4434 68.3903 23.2021C68.1582 24.3556 67.7382 25.4821 67.3451 26.5818C66.6974 28.2237 65.0715 30.9841 63.7517 32.8023C62.4597 34.7175 61.0024 36.5078 59.2511 38.0188C57.068 40.1124 55.231 41.749 52.5221 43.0052C48.6634 44.8235 44.2995 44.6318 40.07 43.357C38.7805 42.9775 37.4944 42.5452 36.2735 41.9763C38.0993 41.7977 39.9439 42.0036 41.7502 41.6103C44.3401 41.2193 46.7352 40.1189 49.1497 39.1598C49.3474 39.0767 49.5436 38.9861 49.7401 38.9008C49.5286 38.9552 49.3162 39.0128 49.1026 39.0684C46.1609 39.7699 43.2976 40.7734 40.3189 41.3324C39.3954 41.538 38.4482 41.585 37.5122 41.7102C37.7577 41.656 37.9987 41.5988 38.2417 41.5404C40.4349 41.0198 42.418 39.9934 44.2138 38.677C45.9958 38.1339 47.7981 37.6356 49.4953 36.8675C51.0875 36.2109 52.7121 35.6006 54.1733 34.6779C56.0547 33.6369 57.6213 32.1336 59.2582 30.7621C57.3693 31.8978 55.5896 33.2276 53.5839 34.1511C52.1057 34.9368 50.52 35.4824 49.0002 36.1763C47.804 36.785 46.5621 37.2902 45.3276 37.808C46.8325 36.5551 48.1967 35.1123 49.4299 33.6236C49.9886 32.9085 50.5226 32.1653 51.0167 31.397C51.8149 30.6566 52.6115 29.9086 53.5195 29.2996ZM39.06 45.6629C42.3257 48.3696 46.4136 50.0057 50.5307 50.9047C51.5849 51.1066 52.6523 51.253 53.7209 51.3477C50.8946 51.3979 47.8166 50.9241 45.1201 50.0888C43.3292 49.5695 41.3882 48.6877 39.5299 47.8317C37.6297 46.9716 36.8259 44.4054 36.2044 42.1207C37.168 43.2957 37.8955 44.6633 39.06 45.6629ZM33.1956 53.0224C32.6071 54.3902 32.83 54.8546 33.2977 53.0623C33.8707 53.2624 34.515 53.2434 35.0546 52.9404C36.3964 52.3295 37.6985 50.7644 37.7603 49.2573C37.7553 48.9354 37.6083 48.6418 37.5447 48.3311C37.5085 47.8183 37.3888 47.3028 37.4335 46.7884C37.4429 46.7067 37.461 46.6256 37.4791 46.5446C38.5664 48.1734 40.3515 48.9417 43.7131 50.4351C47.4922 52.001 51.6171 52.664 55.6983 52.4541C56.5547 52.372 57.4148 52.2623 58.2499 52.0456C58.3744 52.002 58.5562 51.9988 58.5748 51.8355C58.5805 51.7475 58.5592 51.6666 58.514 51.5882C57.6905 50.3917 56.0581 50.47 54.7632 50.3844C53.4086 50.3079 52.1953 50.212 50.9302 50.0019C46.8915 49.3316 41.8401 47.6361 38.7723 44.9592C37.8708 44.0873 37.1511 43.0512 36.29 42.1419C37.7143 42.9407 39.2439 43.56 40.7793 44.1111C44.7453 45.5408 49.2975 46.1124 53.2933 44.4974C56.1219 43.3359 58.4982 41.3765 60.6822 39.2796C62.3529 37.849 63.8057 36.2026 65.049 34.3889C66.3188 32.6504 67.5029 30.8371 68.4451 28.898C69.098 27.5636 69.5662 26.1438 69.9469 24.7096C70.0759 24.028 70.372 23.2837 70.0796 22.6109C69.0605 20.8213 67.4423 21.829 65.9632 22.2904C63.7577 23.0243 61.4935 23.6029 59.3604 24.5407C59.1291 24.6489 58.8969 24.7603 58.6668 24.8706C61.6225 21.9384 62.4616 19.1409 63.2566 14.8777C63.5546 13.3247 63.7627 11.7529 63.9125 10.178C64.0206 9.03955 64.1728 7.87005 63.9187 6.74015C63.7501 6.26705 63.308 5.91226 62.8338 5.77086C62.5562 5.69106 62.3053 5.89246 62.0557 5.98846C59.8418 6.94756 58.1651 8.73466 56.5489 10.4699C54.4767 12.6236 52.5587 14.8438 50.885 17.3012C50.9731 16.7053 50.9955 16.0936 51.0463 15.4967C51.2055 14.1338 51.3881 12.7575 51.1375 11.3941C50.9737 10.181 50.5885 9.01955 50.076 7.91185C49.7148 7.06125 49.3871 6.54726 49.2041 5.72656C49.0099 4.97446 48.8274 3.55765 48.8032 3.24675C48.7474 2.62665 48.846 2.49905 48.6827 2.07935C48.4263 1.65975 47.9933 1.29125 47.4886 1.24375C47.3663 1.23245 47.2844 1.31075 47.2025 1.38905C46.6462 2.01525 46.3009 2.12145 45.7449 2.55265C44.4135 3.46535 42.854 3.97315 41.5039 4.84865C40.8496 5.26595 40.2663 5.77215 39.7602 6.35805C39.1577 7.03635 38.512 7.68876 37.9935 8.43436C37.8567 8.36366 37.709 8.31335 37.5612 8.29695C37.34 8.28065 37.3001 8.52965 37.2229 8.68445C36.5517 10.6281 36.0369 12.6226 35.4964 14.6067C35.4699 14.3113 35.4379 14.0163 35.4017 13.7237C35.2357 12.5458 34.9628 11.359 34.4317 10.2874C33.3478 8.23865 31.7973 6.46785 30.1386 4.86676C29.3836 4.13626 28.8668 3.50546 28.4201 2.43316C28.1721 1.93526 28.1158 1.41705 27.8011 0.847455C27.6394 0.582155 27.3886 0.382455 27.1287 0.216155C27.3934 0.371255 26.766 -0.0403455 26.5681 0.00325448C26.32 0.0137545 26.1698 0.286855 26.0393 0.466755C25.7252 0.984155 25.4335 1.51125 25.151 2.04425C23.7836 4.72885 22.569 7.55105 21.9833 10.5185C21.705 12.2523 21.6967 13.994 21.7979 15.7346C21.6668 15.3217 21.5108 14.9147 21.3186 14.523C21.1128 14.1617 20.7975 13.9285 20.592 13.5727C20.2218 12.99 19.7119 12.1462 19.2458 11.4269C18.6525 10.3601 18.0084 9.32266 17.4502 8.23846C16.6419 6.43736 15.8445 4.61586 14.7547 2.96306C14.6802 2.72646 13.3469 1.18035 12.7519 2.38525C12.1918 3.71415 11.756 5.10665 11.4716 6.52195C11.2552 8.53915 11.0504 10.5666 10.8947 12.5911C10.8015 14.2886 11.0132 15.9907 11.3465 17.6538C11.8186 19.9146 12.7179 22.0642 13.751 24.1225C14.7214 26.0871 15.8498 27.9632 17.2613 29.6449C16.1024 28.0094 15.2129 26.2241 14.4638 24.369C13.1112 21.2582 12.3307 17.8764 12.3243 14.813C12.3814 12.3682 12.7143 9.93635 12.9079 7.50305C13.1 6.43185 13.4017 5.37936 13.7476 4.34946C13.9144 3.93396 13.941 3.70115 14.06 3.45735C14.3208 3.89425 14.6046 4.40536 14.8639 4.87416C15.4155 5.92256 15.913 6.99946 16.4423 8.05796C17.3025 9.53816 18.2064 10.9962 19.2007 12.3906C19.6754 13.071 20.1131 13.7899 20.7202 14.3572C21.1358 15.0182 21.4224 15.7593 21.6663 16.4997C21.7515 16.7696 21.8367 17.0395 21.9156 17.3131C21.9948 18.1937 22.0894 19.0767 22.1795 19.9567C21.8836 19.7181 21.5876 19.4795 21.2874 19.2432C20.7598 18.8333 20.0999 18.1157 19.4858 17.414C18.9591 16.7268 17.0167 14.287 16.0477 14.6289C15.9058 14.7109 15.9597 14.8972 16.0204 15.0316C16.0184 15.0526 16.0947 15.3219 16.088 15.3738C16.1251 15.6094 16.1472 15.848 16.1746 16.0864C16.3758 17.467 16.3302 18.4592 16.345 20.0209C16.4161 22.355 16.4068 24.7017 16.7114 27.0196C17.0085 28.5906 17.7339 30.0527 18.4205 31.4864C19.453 33.4998 20.7118 35.4306 22.3322 37.0143C22.2218 36.965 22.1106 36.9191 22.0002 36.8699C19.7581 35.9897 17.6889 34.7782 15.7253 33.3926C13.5896 32.0952 11.5279 30.3342 9.28149 28.7082C11.3931 30.5165 13.4188 32.4452 15.7959 33.9111C16.8907 34.6431 18.0051 35.3553 19.1911 35.9273C20.2541 36.4037 21.357 36.778 22.4647 37.1411C22.7657 37.4277 23.0782 37.7048 23.404 37.9657C24.6225 38.9511 26.0079 39.6142 27.4712 40.06C26.4618 39.9113 25.4587 39.7392 24.4645 39.514C22.3022 39.2712 20.0815 38.8051 18.2421 37.6981C16.4075 36.3793 14.3701 35.0026 12.373 33.7889C13.6243 34.7186 14.9022 35.616 16.1423 36.5607C17.1829 37.3748 18.1873 38.2635 19.4066 38.805C21.1215 39.6083 23.0183 39.9733 24.8999 40.0675C26.1827 40.2984 27.4867 40.4097 28.7902 40.4027C30.3113 40.7333 31.8898 40.8697 33.4278 40.9166C30.0507 40.4432 25.9801 39.4975 23.7726 37.4253C21.9242 35.7304 20.811 33.7974 19.6529 31.4442C18.8937 29.8406 18.231 28.3846 18.1415 26.5469C18.0075 24.9157 17.9181 22.1487 17.8786 20.0308C17.9191 18.8975 17.8055 17.7713 17.6461 16.6489C17.6354 16.5816 17.6282 16.5152 17.6197 16.4467C18.2215 17.1075 18.9453 18.0678 19.6828 18.7971C20.4383 19.5922 21.3334 20.2278 22.1895 20.9084C23.6399 22.1976 24.7274 23.01 25.9086 24.1949C26.8114 25.0886 27.4666 26.0179 28.2869 27.1598C28.8457 27.9075 29.3857 28.5249 29.7563 29.3135C30.2818 30.346 30.5895 31.4562 30.9236 32.5681C31.221 33.6164 31.5905 34.6428 31.8934 35.6909C32.2892 36.9733 32.7513 38.2089 33.2228 39.4364C31.5319 38.303 29.895 37.2287 28.2532 36.0189C27.0604 35.078 26.0423 33.5788 25.1625 32.1577C24.8238 31.571 24.5531 30.9506 24.2389 30.3526C24.3038 30.5383 24.3635 30.7297 24.4241 30.9178C25.0628 32.9242 26.1948 34.8407 27.7719 36.2516C29.5036 37.627 31.4273 38.7333 33.3643 39.8038C33.5306 40.2387 33.7012 40.6712 33.8664 41.1039C33.7894 40.7897 33.6732 40.3682 33.5446 39.9058C33.7645 40.0274 33.9852 40.1457 34.2051 40.2673C34.237 40.342 34.2677 40.4147 34.3017 40.4883C34.2758 40.6783 34.2718 40.867 34.3402 41.0393C34.0749 41.1276 33.8077 41.2225 33.5451 41.3205C32.3277 41.4669 31.1067 41.5337 29.8776 41.5033C28.5318 41.4811 27.1809 41.5041 25.8418 41.3566C22.6072 40.7924 19.4139 39.9672 16.436 38.8793C12.7565 37.6033 9.36489 36.195 6.58309 33.8471C5.95249 33.2538 4.71099 31.7931 4.00449 30.9019C3.67679 30.4274 3.37609 29.525 3.13059 28.7574C2.66419 27.5044 2.37139 26.2049 2.11989 24.8985C2.00899 24.183 1.61409 23.1175 1.45759 22.499C1.54749 22.5375 1.63539 22.5771 1.72229 22.6201C2.09419 22.8093 2.99569 23.4071 3.58919 23.6915C5.09849 24.3931 6.71329 24.8616 8.33369 25.2224C10.0466 25.5721 11.7793 26.0149 13.2839 26.9283C15.0892 28.216 16.5582 29.8701 18.1455 31.3966C17.3124 30.4966 16.5419 29.5435 15.7223 28.6328C15.0411 27.9077 14.2774 27.2698 13.5261 26.6191C10.9149 24.7037 7.55649 24.468 4.66439 23.3135C3.69449 22.9641 3.03779 22.5751 2.15709 22.0132C1.73239 21.7473 1.28659 21.5132 0.819793 21.3309C0.618293 21.2608 0.415992 21.1206 0.196292 21.1655C-0.244608 21.2139 0.188893 22.2486 0.231693 22.5233C0.647393 23.6982 0.753093 24.9476 1.03699 26.1535C1.50589 27.7043 1.89119 29.4136 2.74679 30.7977C3.16239 31.405 3.68619 31.916 4.00429 32.3057C4.56179 32.9581 5.10259 33.6259 5.73899 34.2046C8.52409 36.6268 11.9082 38.2569 15.3711 39.4658C19.0252 40.8496 22.8525 41.868 26.7561 42.1674C28.7073 42.1423 30.6754 42.034 32.5997 41.6884C32.0421 41.9114 31.4859 42.1366 30.9216 42.3381C27.0453 43.8079 23.3159 45.625 19.4843 47.2017C16.6221 48.2413 13.639 48.9102 10.7361 49.8208C10.328 49.9406 9.91839 50.0529 9.50959 50.1618C9.16969 50.3411 9.64029 50.8969 9.81809 51.0484C10.234 51.4409 10.8144 51.5266 11.363 51.4838C11.8873 51.4918 12.4098 51.5065 12.9331 51.5178C15.1837 51.5515 17.4354 51.4404 19.639 50.9476C21.898 50.5556 24.162 49.9913 26.2492 49.0376C28.9298 47.3459 31.5453 45.4631 33.7 43.1345C33.4567 43.5348 33.2146 43.9373 32.9725 44.3397C32.1502 45.6646 31.2979 47.0745 31.2361 48.6747C31.2481 49.9867 31.4385 51.4612 32.363 52.4609C32.5926 52.7068 32.8835 52.8976 33.1956 53.0224Z" fill="#2C561D" stroke="black" stroke-width="2" mask="url(#path-1-inside-1_55_10)"/>
<path d="M43.1205 24.4862C44.2108 22.3793 45.0796 20.1757 45.4253 17.7262C45.4551 17.5394 45.4898 17.346 45.5254 17.1473C45.6718 16.3317 45.8341 15.4274 45.737 14.5253C45.7356 14.5078 45.7339 14.4927 45.733 14.4851L45.7328 14.4831C45.7323 14.4782 45.732 14.4756 45.7319 14.4746L45.7144 14.1804L45.4456 14.054C45.3789 14.0226 45.3083 13.9755 45.2335 13.8955L45.2234 13.8847L45.2127 13.8746C44.9779 13.6513 44.8736 13.3641 44.9153 13.1164L45.0091 13.1224L45.1728 13.2283C45.2184 13.2578 45.2649 13.299 45.3179 13.3589L45.8044 13.9074L45.8843 13.7506L45.9859 13.8947C45.9703 13.9122 45.954 13.9288 45.9373 13.9446L45.7134 14.1548L45.7997 14.4495C46.1602 15.6803 45.9623 16.9918 45.7072 18.3679L45.7058 18.3752L45.7047 18.3825C45.3569 20.6263 44.3891 22.6269 43.1205 24.4862ZM45.349 13.201C45.3156 13.1707 45.287 13.1334 45.2655 13.0913L45.4497 13.1633C45.4605 13.1675 45.4706 13.1732 45.4782 13.1789C45.4789 13.1794 45.4795 13.1799 45.4801 13.1803L45.4807 13.1958L45.4728 13.2215L45.4589 13.267C45.4536 13.2654 45.4445 13.2624 45.4327 13.257C45.4114 13.2473 45.3811 13.2302 45.349 13.201Z" fill="#2C561D" stroke="black"/>
</svg>
